<svg id="Layer_1" data-name="Layer 1" xmlns="http://www.w3.org/2000/svg" viewBox="0 0 710.64 739.38"><defs><style>.cls-1{opacity:0.73;}.cls-2{fill:#29abe2;}.cls-3{opacity:0.48;}.cls-4{opacity:0.27;}.cls-5{fill:#00adee;}</style></defs><title>Logo icon</title><g class="cls-1"><path class="cls-2" d="M224.85,506.88c-6.53-10.44-12.77-22-16.37-34.25-1.88-4.62.64-11.92,5.47-13.89,6.73-2.16,11.55.68,14.29,6.7,4.64,10.63,8.83,20.57,14.93,30.32l2.17,3.47c3.49,5.58,2.44,12-2,14.64l-.73.45c-5.13,3.11-12.14,1.61-15.19-3.27Zm30.09,38.4c-3.78-4.43-2.73-10.83.79-14.89,3.09-4.76,11.13-4.84,14.92-.41a237.86,237.86,0,0,0,30.59,24.65c5.54,2.4,6.09,9.75,2.56,13.81.15,1.84-.59,2.28-2.79,3.62-3.66,2.22-7.17,1.47-11.54-.68C277.07,564.5,266,554.89,254.94,545.28ZM196.53,430.89c-1.11-14.69-2.94-28.94-1.71-43.14-.12-6.65,6.48-10.66,11.45-10.8,6.14.12,9.92,4.55,10,11.2A180.57,180.57,0,0,0,218,426.48c0,4.82-1.21,9.39-4.87,11.61a9.37,9.37,0,0,1-3.37,1.09C203.36,440.2,197.38,437.11,196.53,430.89ZM329.59,590.25c-6.58-.81-8.16-6.57-5.94-12.73,1.92-5,7.48-7.42,13.33-6.16,12.25,5,25.83,7.36,39.86,10.37,5-.13,8.45,5.43,8.87,10.95-1.34,2.73-3.39,5.9-6.32,7.67-1.47.89-4.54.84-6,1.73C357.9,600,343.88,596.94,329.59,590.25ZM203.05,344.33c3.87-14.83,9.78-28,17.58-41.41,2.36-4.31,9.83-6.93,13.47-4.34,5.54,2.4,6.83,9.3,4.91,14.32C231.8,324,227.36,336.3,222.18,349a7.37,7.37,0,0,1-3.39,5.9c-2.93,1.78-6.29,2.87-9.06,1.67A9.89,9.89,0,0,1,203.05,344.33ZM417.82,602a10.25,10.25,0,0,1-12.09-8c.31-6,4.87-11.61,10.58-12.19,13.3-1.35,26.47-4.55,39.21-8.44,6.3-2.86,12.28.23,13.86,6,1.88,4.62-.78,10.08-4.44,12.31l-2.2,1.33C447.37,597.5,432.74,601.58,417.82,602ZM247.4,266.49a193.22,193.22,0,0,1,34.19-29.4c5.13-3.11,11.7-2.3,15.19,3.27,3,4.87,1.56,10.58-4.3,14.14-10.86,8.51-21,16.58-30.24,26a4.28,4.28,0,0,1-1.76,2c-3.66,2.23-9.8,2.12-12.71-.92C243.26,277.66,242.41,271.45,247.4,266.49ZM492.14,555.91c11.73-7.12,23.32-16.08,31.83-25.09,4.26-4.51,10.4-4.39,15.65-.86,3,4.88,3.46,10.39.37,15.15-11.89,10.1-23,19.75-36.23,27.76-5.86,3.56-11,1.86-14.46-3.71C485.23,565.87,487,559,492.14,555.91Zm-162-320.43c-6.73,2.17-11.84.46-14.15-4.85s1.08-11.22,6.64-13.64a210.2,210.2,0,0,1,44.78-10.86c5.7-.58,10.65,4.1,11.07,9.61a11.52,11.52,0,0,1-5,9.77c-1.46.88-3.67,2.22-4.54.83C356,228.4,342.13,232,330.12,235.48ZM547.65,499.15c6.78-11.79,13.55-23.59,16.82-36.15,1.92-5,9-8.31,14.06-6.61,5.85,1.25,8.9,6.12,5.94,12.72-3.57,13.69-10.21,27.33-17.71,39.58-1.33,2.72-2.07,3.17-4.27,4.5s-7.46,2.61-10.66.72C546.57,510.37,545.73,504.16,547.65,499.15ZM409.11,225.94c-5.41-.55-9.92-4.54-9.6-10.49a10.26,10.26,0,0,1,11.58-9,146.53,146.53,0,0,1,44.4,9.54c6.57.82,8.6,7.28,7.1,13a21,21,0,0,1-5.72,5.4c-2.2,1.33-6,1.72-9.5,1C435.11,230.33,422.25,227.57,409.11,225.94ZM572.68,424.4c2.1-12.81,1.14-25.67-.27-39.22-1.14-5.07,2.68-10.27,9.12-11.29,5.27-1.28,11,2.95,12.1,8,2.27,14.95,1.77,28.69,1.41,44.29-.59,2.28-3,6.59-5.15,7.93s-4.54.83-7.17,1.47C576.58,435.48,571.93,429.66,572.68,424.4Zm-88.41-172a10.74,10.74,0,0,1-3.74-14.06c3.39-5.9,9.39-7.62,15.37-4.53,11.66,7.33,24.64,16.75,34.53,26.1,3.78,4.43,3.9,11.08.37,15.15l-2.93,1.78a10,10,0,0,1-12.42-2.07A164.21,164.21,0,0,0,484.27,252.35Zm78.81,95.28c-4.33-11.79-11-24.06-18-35.2l-4.36-7c-3-4.87-1.56-10.58,3.43-15.53,4.4-2.67,11.71-2.31,15.19,3.26l4.79,7.66a178.38,178.38,0,0,1,18.69,39.56c1.87,4.62,0,9.64-5.18,12.75l-1.46.89C571.38,356,565,352.24,563.08,347.63Z" transform="translate(-38.36 -34.5)"/></g><g class="cls-3"><path class="cls-2" d="M273.32,477.45c-4.66-7.46-9.12-15.74-11.69-24.47-1.34-3.3.46-8.51,3.91-9.92,4.81-1.54,8.25.49,10.21,4.78,3.31,7.6,6.3,14.7,10.66,21.66L288,472c2.49,4,1.74,8.55-1.4,10.45l-.52.32a8.07,8.07,0,0,1-10.85-2.33Zm21.49,27.43c-2.7-3.17-1.95-7.74.57-10.64,2.21-3.4,7.95-3.46,10.66-.29a171,171,0,0,0,21.85,17.61c4,1.71,4.35,7,1.83,9.86.1,1.31-.43,1.63-2,2.58-2.61,1.59-5.12,1.06-8.24-.48C310.62,518.61,302.72,511.74,294.81,504.88ZM253.1,423.17c-.79-10.49-2.1-20.67-1.22-30.81-.09-4.76,4.62-7.62,8.17-7.72,4.39.09,7.09,3.25,7.18,8A128.7,128.7,0,0,0,268.46,420c0,3.44-.87,6.7-3.48,8.29a6.62,6.62,0,0,1-2.41.78C258,429.82,253.7,427.61,253.1,423.17Zm95,113.83c-4.69-.58-5.82-4.7-4.24-9.09,1.37-3.58,5.35-5.31,9.52-4.41,8.76,3.61,18.46,5.26,28.48,7.41,3.55-.09,6,3.88,6.33,7.82a13.06,13.06,0,0,1-4.51,5.49c-1,.63-3.25.59-4.29,1.23C368.36,543.93,358.34,541.78,348.13,537ZM257.75,361.34a116.08,116.08,0,0,1,12.56-29.58c1.68-3.08,7-4.95,9.62-3.1,4,1.72,4.88,6.65,3.51,10.23-5.16,7.93-8.33,16.71-12,25.82a5.29,5.29,0,0,1-2.42,4.21c-2.1,1.27-4.5,2.05-6.48,1.19A7.06,7.06,0,0,1,257.75,361.34Zm153.41,184a7.32,7.32,0,0,1-8.64-5.72c.23-4.26,3.48-8.3,7.56-8.71a148,148,0,0,0,28-6c4.5-2,8.77.16,9.9,4.28,1.34,3.3-.56,7.2-3.17,8.79l-1.57,1C432.27,542.18,421.81,545.09,411.16,545.38ZM289.43,305.74a137.81,137.81,0,0,1,24.42-21c3.67-2.22,8.36-1.64,10.85,2.34,2.18,3.47,1.11,7.55-3.07,10.09-7.76,6.09-15,11.85-21.6,18.6a3,3,0,0,1-1.25,1.45c-2.62,1.59-7,1.51-9.08-.66C286.47,313.72,285.86,309.28,289.43,305.74ZM464.25,512.47A113.45,113.45,0,0,0,487,494.55c3-3.22,7.43-3.14,11.18-.61,2.18,3.48,2.47,7.41.26,10.82-8.49,7.21-16.45,14.1-25.87,19.82-4.19,2.55-7.84,1.33-10.33-2.65C459.31,519.59,460.58,514.69,464.25,512.47ZM348.52,283.59c-4.81,1.55-8.46.33-10.11-3.47s.77-8,4.74-9.74a149.93,149.93,0,0,1,32-7.75,7.41,7.41,0,0,1,7.91,6.86,8.21,8.21,0,0,1-3.58,7c-1,.63-2.62,1.59-3.24.59A244.32,244.32,0,0,0,348.52,283.59ZM503.89,471.93c4.84-8.43,9.68-16.86,12-25.82,1.37-3.58,6.4-5.94,10-4.73,4.18.9,6.36,4.38,4.25,9.09-2.56,9.78-7.3,19.52-12.66,28.27a6,6,0,0,1-3,3.22c-1.57,1-5.33,1.86-7.62.51C503.13,479.94,502.52,475.5,503.89,471.93ZM404.94,276.78c-3.87-.4-7.09-3.25-6.86-7.5a7.32,7.32,0,0,1,8.27-6.39,104.55,104.55,0,0,1,31.72,6.81c4.69.58,6.14,5.2,5.07,9.27a15.27,15.27,0,0,1-4.09,3.86,10.07,10.07,0,0,1-6.79.69A104.72,104.72,0,0,0,404.94,276.78ZM521.78,418.53c1.5-9.14.81-18.33-.2-28-.81-3.62,1.92-7.34,6.51-8.07,3.77-.91,7.82,2.11,8.65,5.73,1.62,10.68,1.26,20.5,1,31.64-.43,1.63-2.12,4.71-3.69,5.66s-3.23.6-5.12,1C524.56,426.45,521.24,422.29,521.78,418.53ZM458.63,295.64a7.66,7.66,0,0,1-2.68-10c2.42-4.22,6.71-5.45,11-3.24A166.71,166.71,0,0,1,491.6,301a8.45,8.45,0,0,1,.26,10.81l-2.09,1.28a7.15,7.15,0,0,1-8.87-1.48A117.52,117.52,0,0,0,458.63,295.64Zm56.29,68.05a142,142,0,0,0-12.84-25.13l-3.11-5c-2.18-3.48-1.12-7.56,2.45-11.09,3.14-1.91,8.36-1.65,10.85,2.33l3.42,5.47A126.84,126.84,0,0,1,529,358.55c1.35,3.3,0,6.88-3.69,9.11l-1.05.63C520.84,369.7,516.26,367,514.92,363.69Z" transform="translate(-38.36 -34.5)"/></g><g class="cls-4"><path class="cls-2" d="M307.79,456.52A72.63,72.63,0,0,1,299.43,439c-.95-2.36.33-6.09,2.8-7.09,3.44-1.11,5.89.34,7.3,3.41a112.41,112.41,0,0,0,7.62,15.49l1.11,1.77c1.78,2.85,1.24,6.12-1,7.48l-.37.23a5.76,5.76,0,0,1-7.75-1.67Zm15.37,19.61c-1.93-2.26-1.4-5.53.4-7.61,1.58-2.43,5.69-2.47,7.62-.21a122.49,122.49,0,0,0,15.62,12.6c2.83,1.22,3.11,5,1.31,7,.07.93-.3,1.16-1.42,1.84-1.87,1.14-3.67.76-5.9-.34C334.46,485.94,328.81,481,323.16,476.13Zm-29.83-58.41c-.56-7.51-1.5-14.79-.87-22-.06-3.39,3.31-5.44,5.85-5.51,3.13.06,5.06,2.32,5.12,5.72a92.84,92.84,0,0,0,.89,19.57c0,2.46-.62,4.79-2.49,5.93a4.58,4.58,0,0,1-1.72.55C296.82,422.47,293.77,420.89,293.33,417.72Zm67.95,81.37c-3.36-.41-4.17-3.35-3-6.5,1-2.55,3.83-3.79,6.81-3.15,6.26,2.58,13.2,3.77,20.36,5.3,2.54-.07,4.31,2.78,4.53,5.59a9.35,9.35,0,0,1-3.23,3.92c-.75.46-2.32.43-3.07.88C375.74,504.05,368.58,502.51,361.28,499.09ZM296.66,373.51a82.81,82.81,0,0,1,9-21.15c1.2-2.2,5-3.53,6.88-2.21,2.83,1.23,3.49,4.75,2.5,7.31-3.68,5.67-5.95,12-8.59,18.46a3.76,3.76,0,0,1-1.73,3c-1.5.91-3.21,1.46-4.63.85A5,5,0,0,1,296.66,373.51ZM406.34,505.09a5.24,5.24,0,0,1-6.18-4.1c.16-3,2.49-5.93,5.4-6.22a106.08,106.08,0,0,0,20-4.31c3.21-1.46,6.27.11,7.07,3.06a5.4,5.4,0,0,1-2.26,6.28l-1.12.68C421.42,502.79,414,504.88,406.34,505.09Zm-87-171.33a98.28,98.28,0,0,1,17.46-15,5.48,5.48,0,0,1,7.75,1.67c1.56,2.48.8,5.4-2.19,7.22a153,153,0,0,0-15.44,13.29,2.17,2.17,0,0,1-.9,1c-1.87,1.14-5,1.08-6.49-.47A5,5,0,0,1,319.31,333.76Zm125,147.8a81.23,81.23,0,0,0,16.25-12.81c2.18-2.31,5.31-2.25,8-.44a6.94,6.94,0,0,1,.19,7.73c-6.07,5.16-11.76,10.09-18.5,14.18-3,1.81-5.6.95-7.38-1.9C440.76,486.64,441.67,483.15,444.29,481.56ZM361.55,317.93c-3.43,1.1-6,.23-7.23-2.48s.55-5.73,3.39-7a108,108,0,0,1,22.87-5.54,5.3,5.3,0,0,1,5.65,4.91,5.86,5.86,0,0,1-2.56,5c-.75.46-1.87,1.14-2.31.43A171.87,171.87,0,0,0,361.55,317.93ZM472.63,452.57c3.46-6,6.92-12.05,8.59-18.46a6.27,6.27,0,0,1,7.18-3.38c3,.65,4.54,3.13,3,6.5a77.21,77.21,0,0,1-9.05,20.21,4.25,4.25,0,0,1-2.18,2.3c-1.12.68-3.81,1.34-5.44.37A6.18,6.18,0,0,1,472.63,452.57ZM401.89,313.06A5.14,5.14,0,0,1,397,307.7a5.26,5.26,0,0,1,5.92-4.58A74.6,74.6,0,0,1,425.57,308c3.36.41,4.39,3.71,3.63,6.62a10.72,10.72,0,0,1-2.93,2.76,7.16,7.16,0,0,1-4.85.49A75.37,75.37,0,0,0,401.89,313.06ZM485.42,414.4c1.07-6.54.58-13.11-.14-20-.58-2.59,1.37-5.24,4.65-5.77,2.7-.65,5.6,1.51,6.18,4.1,1.16,7.63.91,14.65.72,22.62a8.41,8.41,0,0,1-2.63,4.05c-1.12.68-2.31.42-3.66.75A5.3,5.3,0,0,1,485.42,414.4Zm-45.15-87.86a5.49,5.49,0,0,1-1.91-7.18,5.57,5.57,0,0,1,7.85-2.31,118.91,118.91,0,0,1,17.63,13.33,6,6,0,0,1,.19,7.73l-1.5.91a5.1,5.1,0,0,1-6.34-1.06A84.14,84.14,0,0,0,440.27,326.54Zm40.24,48.65a100.94,100.94,0,0,0-9.18-18l-2.22-3.55c-1.55-2.49-.79-5.41,1.75-7.93a5.76,5.76,0,0,1,7.76,1.66l2.45,3.91a91.45,91.45,0,0,1,9.54,20.21c1,2.36,0,4.92-2.64,6.51l-.75.45C484.75,379.49,481.47,377.55,480.51,375.19Z" transform="translate(-38.36 -34.5)"/></g><g class="cls-1"><path class="cls-5" d="M171.8,285c7.53-13.71,16.52-27.83,27.91-39.48,4-5,13.73-6.86,19-2.87,6.68,5.94,6.56,13,1.57,19.76-8.95,11.77-17.41,22.62-24.44,35.42l-2.51,4.56c-4,7.32-11.84,10.23-17.62,7.15l-1-.51c-6.74-3.6-9.5-12.15-6-18.55Zm-23.87,57c2.55-6.91,10.37-9.83,17.15-8.58,7.28.34,12.47,9,9.91,15.93a296.54,296.54,0,0,0-8.18,48.83c.84,7.53-7,12.79-13.81,11.54-2,1.31-2.93.8-5.81-.74-4.81-2.57-6.2-6.85-6.56-13C140.46,378.23,144.2,360.14,147.93,342ZM238.8,206.14c15.73-10.52,30.5-21.54,47.16-29.2,7.36-4.35,16,.27,19.33,5.58,3.76,6.74,1.21,13.65-6.16,18a237.09,237.09,0,0,0-41.76,26.18c-5.4,3-11.26,4.63-16.07,2.06a11.57,11.57,0,0,1-3.35-3C232.73,219.45,232.39,211,238.8,206.14ZM145,451.55c-3.26-7.66,2.18-13,10.47-14.51,6.81-1.09,13,3.41,15.34,10.55,2.13,16.51,8.14,32.72,13.67,49.84,3.3,5.31-.72,12.62-6.62,16.57-3.9.28-8.75,0-12.59-2-1.93-1-3.81-4.39-5.74-5.42C152.05,488.43,146.54,471.3,145,451.55Zm194.76-293.2c19-5.21,37.54-7.16,57.45-7.17,6.31-.18,14,6.27,13.38,11.86.83,7.54-6.06,13.31-12.89,14.4-17-.79-33.55,2.19-51.08,4.66a9.75,9.75,0,0,1-8.75.06c-3.84-2.06-7.19-5-7.6-8.79C328.89,166.74,332.4,160.35,339.72,158.35Zm-152,396.41c-5.23-6.34-3.63-13.77,1.3-18.22,6.86-3.43,16.07-2.07,20.34,3.76,9.94,13.58,21.87,25.85,34.29,37.21,7.19,5,7.52,13.46,2.08,18.84-4,5-11.76,5.54-16.57,3l-2.88-1.54C211.51,584,197.67,570.68,187.76,554.76Zm267.1-397.62a248.21,248.21,0,0,1,54.55,18.47c6.74,3.6,10,11.24,6,18.55-3.51,6.4-10.84,8.4-18.53,4.3-16.4-6.39-31.84-12.26-48.27-16.31a5.6,5.6,0,0,1-3.39-.63c-4.81-2.56-8.58-9.3-7-14.38C439.76,159.72,446.16,154.86,454.86,157.14ZM286.39,606.2c15.4,8.21,32.76,15.12,48.23,18.65,7.74,1.76,11.5,8.5,10.88,16.43-3.52,6.4-9.42,10.34-16.7,10-18.83-6.5-36.69-12.49-54-21.73-7.7-4.11-9-10.72-5-18C270.87,605,279.66,602.61,286.39,606.2ZM542,227.26c-6.69-5.93-8-12.56-3.55-18.44s13.23-5.94,19.46-1.44c15.3,12.89,28.19,25.68,40.52,41.72,4.26,5.82,2.17,14.15-3.73,18.11a15.11,15.11,0,0,1-14.09.74c-1.93-1-4.82-2.57-3.81-4.39C566.32,250.89,553.44,238.1,542,227.26ZM385,630.47c17.48-.12,35-.25,51.08-4.66,6.82-1.08,15,4.45,16.31,11.07,2.3,7.14-1.21,13.53-10.47,14.51-17.57,4.8-37,6.24-55.47,5.86-3.89.29-4.86-.23-7.74-1.77s-7.65-6.44-7.57-11.12C371.81,636.41,378.22,631.56,385,630.47ZM602.7,306.94c-2.8-6.22-1.21-13.65,5.65-17.08,7.83-2.92,14.56.68,17.36,6.9A179.08,179.08,0,0,1,643.18,351c3.26,7.64-2.68,13.93-10,15.93a27.05,27.05,0,0,1-9.66-2.8c-2.88-1.53-5.73-5.41-7.1-9.69C614.28,337.94,609.22,322.24,602.7,306.94ZM484.49,610.25c15.65-5.83,29.42-15,43.68-25.15,4.94-4.45,13.19-3.6,18.41,2.74,4.77,4.91,3.64,13.75-1.3,18.21-15.28,11.94-31,20.12-48.63,29.61-2.93.8-9.25,1-12.13-.57s-3.8-4.39-6.19-6.85C474.57,621.51,478.13,612.77,484.49,610.25Zm136.33-205a13.89,13.89,0,0,1,13.35-13c8.75-.06,14.47,5.35,14.8,13.81-.79,17.3-3.1,37.35-7.29,54-2.56,6.91-9.92,11.25-16.7,10l-3.85-2.05a12.33,12.33,0,0,1-5.56-14.79A202.92,202.92,0,0,0,620.82,405.25ZM564.24,551.17c10.43-12.17,19.93-27.19,28-41.81l5-9.15c3.51-6.39,10.84-8.39,19.54-6.12,5.77,3.09,10,11.24,6,18.56l-5.52,10.05a227.6,227.6,0,0,1-32.4,45.36c-4,5-10.79,6.06-17.53,2.46l-1.92-1C560.1,565.51,560.27,556.14,564.24,551.17Z" transform="translate(-38.36 -34.5)"/></g><g class="cls-3"><path class="cls-5" d="M269.34,337.08c4.23-7.7,9.29-15.64,15.69-22.18,2.23-2.8,7.71-3.86,10.67-1.62,3.76,3.34,3.69,7.29.89,11.11-5,6.61-9.79,12.71-13.74,19.9l-1.41,2.57c-2.26,4.11-6.65,5.75-9.9,4l-.54-.29a7.82,7.82,0,0,1-3.35-10.43Zm-13.42,32c1.44-3.88,5.84-5.52,9.64-4.82,4.1.19,7,5.07,5.57,9a167.23,167.23,0,0,0-4.59,27.44c.47,4.23-4,7.19-7.77,6.48-1.1.74-1.64.45-3.26-.41-2.7-1.45-3.48-3.85-3.69-7.29C251.73,389.46,253.83,379.29,255.92,369.11ZM307,292.74c8.84-5.91,17.14-12.11,26.5-16.41,4.14-2.44,9,.15,10.86,3.13,2.12,3.79.68,7.68-3.46,10.12a133.58,133.58,0,0,0-23.47,14.71c-3,1.7-6.33,2.6-9,1.16a6.56,6.56,0,0,1-1.88-1.67C303.58,300.22,303.39,295.47,307,292.74ZM254.26,430.67c-1.84-4.31,1.22-7.32,5.88-8.16,3.83-.61,7.33,1.92,8.62,5.93,1.2,9.28,4.58,18.39,7.68,28,1.86,3-.4,7.09-3.72,9.31a13.39,13.39,0,0,1-7.07-1.12c-1.08-.57-2.14-2.47-3.23-3.05C258.24,451.39,255.14,441.77,254.26,430.67ZM363.72,265.88a120.15,120.15,0,0,1,32.28-4c3.55-.1,7.86,3.53,7.53,6.67.46,4.24-3.41,7.48-7.25,8.09-9.54-.44-18.86,1.23-28.71,2.62a5.44,5.44,0,0,1-4.91,0c-2.17-1.15-4.05-2.82-4.28-4.93A7.08,7.08,0,0,1,363.72,265.88ZM278.31,488.67a7.16,7.16,0,0,1,.73-10.24c3.86-1.93,9-1.16,11.43,2.11a144.61,144.61,0,0,0,19.27,20.92c4.05,2.82,4.23,7.57,1.18,10.59-2.24,2.79-6.61,3.11-9.32,1.67l-1.62-.86C291.66,505.09,283.88,497.62,278.31,488.67ZM428.43,265.2a139.65,139.65,0,0,1,30.65,10.38c3.79,2,5.62,6.32,3.36,10.43-2,3.59-6.09,4.72-10.41,2.41-9.22-3.59-17.9-6.89-27.14-9.16a3.19,3.19,0,0,1-1.9-.35c-2.7-1.45-4.82-5.23-3.95-8.09C419.94,266.65,423.53,263.92,428.43,265.2ZM333.75,517.58a113.86,113.86,0,0,0,27.1,10.48c4.35,1,6.46,4.78,6.11,9.24-2,3.6-5.29,5.81-9.38,5.62-10.58-3.65-20.62-7-30.35-12.21-4.33-2.31-5.08-6-2.82-10.14C325,516.92,330,515.56,333.75,517.58Zm143.64-213c-3.76-3.33-4.51-7.06-2-10.36s7.43-3.34,10.93-.81a147.37,147.37,0,0,1,22.78,23.44c2.39,3.28,1.21,8-2.1,10.18a8.48,8.48,0,0,1-7.92.42C498,326.9,496.38,326,497,325A240,240,0,0,0,477.39,304.61ZM389.18,531.22c9.83-.07,19.66-.14,28.71-2.61,3.83-.62,8.42,2.49,9.17,6.21,1.29,4-.68,7.61-5.88,8.16-9.88,2.7-20.81,3.51-31.18,3.29a6.12,6.12,0,0,1-4.35-1c-1.62-.87-4.3-3.62-4.25-6.25C381.75,534.56,385.35,531.83,389.18,531.22ZM511.52,349.39c-1.58-3.49-.68-7.67,3.17-9.6a7.4,7.4,0,0,1,9.76,3.88,100.71,100.71,0,0,1,9.82,30.48c1.83,4.3-1.51,7.83-5.63,9a15.64,15.64,0,0,1-5.43-1.57,9.81,9.81,0,0,1-4-5.45A101.33,101.33,0,0,0,511.52,349.39ZM445.08,519.86c8.79-3.28,16.53-8.45,24.55-14.13,2.78-2.5,7.41-2,10.34,1.53,2.68,2.76,2,7.73-.73,10.24-8.58,6.71-17.4,11.3-27.33,16.64-1.64.45-5.19.55-6.81-.32s-2.14-2.47-3.49-3.85A7.34,7.34,0,0,1,445.08,519.86ZM521.7,404.65a7.79,7.79,0,0,1,7.5-7.29c4.92,0,8.14,3,8.32,7.76a161.65,161.65,0,0,1-4.1,30.36A8.7,8.7,0,0,1,524,441.1l-2.16-1.16a6.92,6.92,0,0,1-3.13-8.31A114.09,114.09,0,0,0,521.7,404.65Zm-31.8,82a142,142,0,0,0,15.72-23.5l2.82-5.13c2-3.6,6.09-4.72,11-3.44,3.25,1.73,5.62,6.31,3.36,10.42l-3.11,5.65a127.79,127.79,0,0,1-18.2,25.5c-2.23,2.79-6.07,3.4-9.85,1.38l-1.08-.57C487.58,494.71,487.67,489.45,489.9,486.65Z" transform="translate(-38.36 -34.5)"/></g><g class="cls-4"><path class="cls-5" d="M304.94,356.08a72.43,72.43,0,0,1,11.22-15.86c1.6-2,5.51-2.76,7.63-1.15,2.69,2.38,2.64,5.2.63,7.93a116.24,116.24,0,0,0-9.82,14.23l-1,1.84c-1.61,2.94-4.75,4.11-7.07,2.87l-.39-.2a5.61,5.61,0,0,1-2.4-7.46ZM295.35,379c1-2.78,4.17-4,6.89-3.45,2.93.14,5,3.63,4,6.4a118.92,118.92,0,0,0-3.29,19.62c.34,3-2.83,5.14-5.55,4.64-.79.53-1.18.32-2.34-.3-1.93-1-2.48-2.75-2.63-5.21C292.35,393.53,293.85,386.25,295.35,379Zm36.51-54.6c6.32-4.23,12.26-8.66,18.95-11.73,3-1.75,6.44.11,7.77,2.24,1.51,2.71.48,5.48-2.47,7.23a94.64,94.64,0,0,0-16.78,10.51c-2.18,1.22-4.53,1.87-6.46.84a4.69,4.69,0,0,1-1.35-1.2C329.43,329.73,329.29,326.33,331.86,324.38ZM294.16,423c-1.31-3.07.87-5.23,4.2-5.83,2.74-.43,5.25,1.38,6.17,4.25.86,6.63,3.27,13.14,5.49,20,1.33,2.13-.29,5.07-2.66,6.66a9.59,9.59,0,0,1-5.06-.81c-.77-.41-1.53-1.76-2.3-2.17C297,437.8,294.79,430.92,294.16,423Zm78.25-117.8a85.24,85.24,0,0,1,23.09-2.88c2.53-.08,5.61,2.52,5.37,4.76.34,3-2.43,5.35-5.17,5.79-6.83-.32-13.49.88-20.53,1.87a3.89,3.89,0,0,1-3.51,0c-1.55-.82-2.89-2-3.06-3.53A5,5,0,0,1,372.41,305.18ZM311.36,464.45a5.12,5.12,0,0,1,.52-7.32c2.76-1.38,6.46-.83,8.17,1.51a103.24,103.24,0,0,0,13.78,14.95,4.77,4.77,0,0,1,.84,7.57,5.59,5.59,0,0,1-6.66,1.2l-1.16-.62C320.9,476.19,315.34,470.85,311.36,464.45ZM418.68,304.69a99.93,99.93,0,0,1,21.91,7.42,5.34,5.34,0,0,1,2.41,7.46c-1.42,2.57-4.36,3.37-7.45,1.72a156,156,0,0,0-19.4-6.55,2.26,2.26,0,0,1-1.36-.25c-1.93-1-3.44-3.74-2.82-5.78A5.14,5.14,0,0,1,418.68,304.69ZM351,485.12a81.35,81.35,0,0,0,19.37,7.49c3.12.71,4.63,3.42,4.38,6.61a7.18,7.18,0,0,1-6.71,4c-7.57-2.61-14.75-5-21.7-8.73-3.1-1.65-3.63-4.31-2-7.25C344.75,484.65,348.28,483.68,351,485.12ZM453.68,332.87c-2.69-2.39-3.22-5.05-1.42-7.41s5.31-2.39,7.81-.58a105.48,105.48,0,0,1,16.29,16.76,5.2,5.2,0,0,1-1.5,7.27,6.05,6.05,0,0,1-5.67.3c-.77-.41-1.93-1-1.53-1.76A168.44,168.44,0,0,0,453.68,332.87Zm-63.06,162c7,0,14.05-.1,20.53-1.87a6.22,6.22,0,0,1,6.55,4.45c.93,2.87-.49,5.44-4.2,5.83a79.56,79.56,0,0,1-22.29,2.35,4.3,4.3,0,0,1-3.11-.71c-1.16-.62-3.08-2.59-3-4.47A6.28,6.28,0,0,1,390.62,494.87Zm87.46-130a5.06,5.06,0,0,1,2.27-6.86,5.28,5.28,0,0,1,7,2.77,72.06,72.06,0,0,1,7,21.79c1.3,3.07-1.08,5.6-4,6.4a10.83,10.83,0,0,1-3.88-1.12,7,7,0,0,1-2.85-3.9A72.42,72.42,0,0,0,478.08,364.88Zm-47.5,121.87c6.29-2.34,11.82-6,17.55-10.1,2-1.79,5.3-1.45,7.4,1.09,1.92,2,1.46,5.53-.52,7.32-6.14,4.8-12.44,8.09-19.54,11.9a8.64,8.64,0,0,1-4.88-.23c-1.16-.62-1.52-1.76-2.48-2.75A5.25,5.25,0,0,1,430.58,486.75Zm54.78-82.37a5.57,5.57,0,0,1,5.36-5.21c3.52,0,5.82,2.15,5.95,5.55a115.86,115.86,0,0,1-2.93,21.7,6.21,6.21,0,0,1-6.71,4l-1.54-.82a5,5,0,0,1-2.24-5.94A82,82,0,0,0,485.36,404.38ZM462.63,463a101.62,101.62,0,0,0,11.23-16.8l2-3.67c1.41-2.57,4.36-3.38,7.85-2.46a5.58,5.58,0,0,1,2.4,7.45l-2.22,4a91.47,91.47,0,0,1-13,18.23c-1.6,2-4.34,2.43-7,1l-.77-.41C461,468.77,461,465,462.63,463Z" transform="translate(-38.36 -34.5)"/></g><path class="cls-5" d="M393.67,34.5C591.25,34.5,749,203.51,749,404.19S591.25,773.88,393.67,773.88c-196,0-355.31-169-355.31-369.69S197.63,34.5,393.67,34.5Zm0,666.94c153.16,0,281.81-132.78,281.81-297.25S546.83,105.43,393.67,105.43,111.86,239.72,111.86,404.19,240.51,701.44,393.67,701.44Z" transform="translate(-38.36 -34.5)"/></svg>